<?xml version="1.0" standalone="no"?>
<!DOCTYPE svg PUBLIC "-//W3C//DTD SVG 20010904//EN"
 "http://www.w3.org/TR/2001/REC-SVG-20010904/DTD/svg10.dtd">
<svg version="1.0" xmlns="http://www.w3.org/2000/svg"
 width="323.000000pt" height="323.000000pt" viewBox="0 0 323.000000 323.000000"
 preserveAspectRatio="xMidYMid meet">
<metadata>
Created by potrace 1.11, written by Peter Selinger 2001-2013
</metadata>
<g transform="translate(0.000000,323.000000) scale(0.100000,-0.100000)"
fill="#000000" stroke="none">
<path d="M640 2064 c-6 -14 -13 -56 -16 -94 l-7 -68 61 -1 60 0 -24 90 c-13
50 -24 92 -24 95 0 2 -9 4 -20 4 -13 0 -24 -10 -30 -26z"/>
<path d="M832 2073 c-10 -20 -42 -142 -42 -161 0 -8 20 -12 58 -12 l59 0 -11
83 c-7 45 -15 88 -19 95 -12 17 -35 15 -45 -5z"/>
<path d="M950 1995 l0 -95 35 0 35 0 0 95 0 95 -35 0 -35 0 0 -95z"/>
<path d="M1050 1995 l0 -95 30 0 30 0 0 95 0 95 -30 0 -30 0 0 -95z"/>
<path d="M1267 2083 c-4 -3 -7 -46 -7 -95 l0 -88 30 0 30 0 0 95 c0 93 -1 95
-23 95 -13 0 -27 -3 -30 -7z"/>
<path d="M1444 2023 c12 -118 14 -123 48 -123 30 0 30 1 25 38 -4 20 -9 63
-13 95 -7 55 -8 57 -37 57 l-29 0 6 -67z"/>
<path d="M1581 2053 c-16 -59 -30 -127 -31 -140 0 -19 48 -15 59 5 10 16 10
16 11 0 0 -13 8 -18 30 -18 30 0 30 0 24 43 -14 85 -38 142 -61 145 -18 3 -24
-4 -32 -35z"/>
<path d="M1726 2038 c-4 -29 -9 -72 -12 -95 -6 -42 -6 -43 24 -43 28 0 30 2
36 53 4 28 9 71 12 95 6 41 6 42 -24 42 -28 0 -30 -2 -36 -52z"/>
<path d="M1861 2065 c-30 -26 -44 -58 -56 -127 -6 -38 -6 -38 30 -38 30 0 35
3 35 23 0 35 30 57 77 57 44 0 73 -23 73 -58 0 -18 6 -22 30 -22 28 0 30 3 30
35 0 50 -28 112 -60 135 -42 30 -120 27 -159 -5z"/>
<path d="M2145 2078 c-13 -35 -35 -101 -35 -103 0 -1 41 -3 91 -3 97 0 109 -5
109 -49 0 -19 6 -23 30 -23 30 0 30 1 30 53 0 61 -27 112 -66 127 -38 15 -154
13 -159 -2z"/>
<path d="M2400 1995 l0 -95 63 0 63 0 43 73 c24 39 51 82 59 95 l15 23 -47 -3
-48 -3 -41 -78 -42 -78 -3 81 -3 80 -29 0 -30 0 0 -95z"/>
<path d="M610 1866 c0 -12 -21 -164 -25 -183 -5 -20 -1 -23 24 -23 34 0 36 6
46 95 3 33 8 72 11 88 5 25 3 27 -25 27 -17 0 -31 -2 -31 -4z"/>
<path d="M690 1856 c0 -7 9 -51 21 -97 35 -143 65 -143 98 0 27 113 27 113 -6
109 -20 -2 -29 -9 -31 -26 -4 -26 -22 -20 -22 9 0 14 -7 19 -30 19 -19 0 -30
-5 -30 -14z"/>
<path d="M854 1848 c3 -13 8 -54 11 -92 9 -90 12 -96 46 -96 25 0 29 3 25 23
-3 12 -8 49 -11 82 -10 98 -14 105 -46 105 -25 0 -29 -3 -25 -22z"/>
<path d="M950 1765 l0 -105 35 0 35 0 0 105 0 105 -35 0 -35 0 0 -105z"/>
<path d="M1050 1765 l0 -106 87 3 86 3 18 53 18 52 -75 0 -74 0 0 50 c0 49 -1
50 -30 50 l-30 0 0 -105z"/>
<path d="M1270 1765 l0 -106 86 3 87 3 16 50 15 50 9 -45 c9 -45 22 -70 38
-70 14 0 30 38 53 131 l23 89 -25 0 c-14 0 -31 -8 -38 -17 -13 -17 -13 -17
-14 0 0 12 -8 17 -26 17 -25 0 -26 -2 -22 -50 l3 -50 -72 0 -73 0 0 50 c0 49
-1 50 -30 50 l-30 0 0 -105z"/>
<path d="M1630 1868 c0 -2 11 -45 25 -97 38 -150 68 -159 91 -29 20 110 18
128 -9 128 -13 0 -28 -5 -35 -12 -9 -9 -12 -9 -12 0 0 7 -13 12 -30 12 -16 0
-30 -1 -30 -2z"/>
<path d="M1804 1818 c11 -83 39 -136 80 -153 45 -19 80 -19 120 0 44 21 68 66
75 141 l7 64 -33 0 c-31 0 -33 -2 -33 -33 0 -45 -18 -66 -62 -74 -52 -8 -84
15 -93 67 -6 36 -9 40 -37 40 l-31 0 7 -52z"/>
<path d="M2110 1765 l0 -105 30 0 c30 0 30 0 30 56 l0 55 46 -3 c46 -3 47 -3
66 -55 19 -52 20 -53 59 -53 37 0 40 2 33 23 -3 12 -17 43 -30 69 -15 29 -20
49 -14 53 6 3 17 19 25 36 l16 29 -131 0 -130 0 0 -105z"/>
<path d="M2400 1765 l0 -105 30 0 30 0 1 88 0 87 45 -87 44 -88 46 0 46 0 -40
73 c-81 149 -69 137 -139 137 l-63 0 0 -105z"/>
<path d="M1059 1569 c-41 -24 -67 -70 -76 -135 -6 -43 -5 -44 24 -44 24 0 30
5 38 33 22 72 124 75 158 5 14 -29 25 -38 44 -38 25 0 26 1 20 51 -15 122
-114 182 -208 128z"/>
<path d="M1316 1568 c-13 -20 -16 -43 -14 -99 l3 -74 73 -3 72 -2 -39 77 c-21
43 -48 89 -58 102 l-20 25 -17 -26z"/>
<path d="M613 1528 l-20 -53 91 -3 c98 -3 116 -12 116 -60 0 -20 4 -23 28 -20
25 3 27 6 26 48 0 57 -30 119 -61 131 -13 5 -55 9 -92 9 l-68 0 -20 -52z"/>
<path d="M890 1484 l0 -95 28 3 27 3 3 93 3 92 -31 0 -30 0 0 -96z"/>
<path d="M1482 1488 l3 -93 28 -3 27 -3 0 95 0 96 -30 0 -31 0 3 -92z"/>
<path d="M1572 1488 l3 -93 108 -3 c69 -2 107 1 107 8 0 6 -30 10 -75 10 l-75
0 0 30 0 30 65 0 c36 0 65 2 65 5 0 2 9 27 20 55 l20 50 -121 0 -120 0 3 -92z"/>
<path d="M1830 1485 l0 -95 105 0 c63 0 105 4 105 10 0 6 -32 10 -75 10 l-75
0 0 30 c0 29 0 29 66 32 l66 3 19 50 c10 28 19 51 19 53 0 1 -52 2 -115 2
l-115 0 0 -95z"/>
<path d="M2115 1568 c-3 -7 -11 -32 -19 -55 l-15 -43 92 0 c102 0 117 -7 117
-52 0 -24 4 -28 30 -28 29 0 30 1 30 50 0 57 -19 101 -52 124 -29 20 -176 23
-183 4z"/>
<path d="M2415 1556 c-26 -26 -38 -73 -33 -127 l3 -34 115 -3 c75 -2 111 1
105 7 -6 6 -44 11 -85 13 -73 3 -75 4 -75 28 0 24 2 25 80 28 l80 3 12 37 c6
20 15 45 18 55 7 15 -2 17 -94 17 -94 0 -104 -2 -126 -24z"/>
<path d="M590 1260 l0 -110 30 0 c30 0 30 1 30 55 l0 55 68 0 c55 0 72 4 91
21 21 20 41 59 41 80 0 5 -56 9 -130 9 l-130 0 0 -110z"/>
<path d="M890 1260 l0 -110 30 0 30 0 0 110 0 110 -30 0 -30 0 0 -110z"/>
<path d="M980 1333 c0 -61 20 -115 55 -150 29 -29 40 -33 84 -33 29 0 65 7 80
15 37 19 64 76 69 148 l4 57 -31 0 c-28 0 -31 -3 -31 -33 0 -56 -23 -77 -84
-77 -62 0 -75 11 -83 70 -5 36 -8 40 -34 40 -27 0 -29 -3 -29 -37z"/>
<path d="M1300 1260 l0 -110 30 0 30 0 0 110 0 110 -30 0 -30 0 0 -110z"/>
<path d="M1380 1366 c0 -3 25 -51 54 -108 80 -150 106 -147 106 15 l0 97 -25
0 c-14 0 -28 -7 -32 -16 -5 -15 -7 -15 -15 0 -6 10 -23 16 -48 16 -22 0 -40
-2 -40 -4z"/>
<path d="M1574 1357 c-3 -8 -3 -56 -2 -108 l3 -94 96 -3 96 -3 20 53 20 53
-83 3 -84 3 0 29 c0 29 1 29 61 32 54 3 63 6 70 26 8 22 8 22 -92 22 -73 0
-101 -3 -105 -13z"/>
<path d="M1830 1260 l0 -111 96 3 96 3 19 50 c10 28 19 51 19 53 0 1 -38 2
-85 2 l-85 0 0 30 0 30 65 0 c36 0 65 4 65 9 0 5 3 16 6 25 5 14 -7 16 -95 16
l-101 0 0 -110z"/>
<path d="M2080 1260 l0 -110 30 0 c30 0 30 0 30 56 l0 55 51 -3 52 -3 20 -52
c19 -52 21 -53 59 -53 36 0 39 2 32 23 -3 12 -17 42 -29 66 l-22 44 23 35 c13
19 24 39 24 43 0 5 -61 9 -135 9 l-135 0 0 -110z"/>
<path d="M2400 1361 c0 -20 30 -30 99 -33 77 -3 101 -17 88 -52 -5 -13 -22
-16 -91 -16 l-84 0 -16 -47 c-9 -26 -16 -50 -16 -55 0 -4 47 -8 104 -8 85 0
107 3 124 18 37 32 53 121 32 176 -9 26 -10 26 -125 26 -63 0 -115 -4 -115 -9z"/>
</g>
</svg>
